<svg width="537" height="56" viewBox="0 0 537 56" fill="none" xmlns="http://www.w3.org/2000/svg">
<path d="M537 54.6221H-6.10352e-05V55.5871H537V54.6221Z"/>
<path d="M537 50.7642H-6.10352e-05V51.7292H537V50.7642Z"/>
<path d="M537 46.9072H-6.10352e-05V47.8722H537V46.9072Z"/>
<path d="M537 43.0503H-6.10352e-05V44.0153H537V43.0503Z"/>
<path d="M537 39.1924H-6.10352e-05V40.1574H537V39.1924Z"/>
<path d="M537 35.334H-6.10352e-05V36.299H537V35.334Z"/>
<path d="M537 31.4771H-6.10352e-05V32.4421H537V31.4771Z"/>
<path d="M537 27.6201H-6.10352e-05V28.5851H537V27.6201Z"/>
<path d="M537 23.7622H-6.10352e-05V24.7272H537V23.7622Z"/>
<path d="M537 19.9033H-6.10352e-05V20.8683H537V19.9033Z"/>
<path d="M537 16.0474H-6.10352e-05V17.0124H537V16.0474Z"/>
<path d="M537 12.1895H-6.10352e-05V13.1545H537V12.1895Z"/>
<path d="M537 8.33105H-6.10352e-05V9.29605H537V8.33105Z"/>
<path d="M537 4.47314H-6.10352e-05V5.43814H537V4.47314Z"/>
<path d="M537 0.616211H-6.10352e-05V1.58121H537V0.616211Z"/>
</svg>
